<svg width="185" height="60" viewBox="0 0 185 60" fill="none" xmlns="http://www.w3.org/2000/svg">
<path d="M8 0H177C181.4 0 185 3.6 185 8V52C185 56.4 181.4 60 177 60H8C3.6 60 0 56.4 0 52V8C0 3.6 3.6 0 8 0Z" fill="#240C39"/>
<path d="M71.4 37.3H65.7L64.3 41.4H62L67.4 26.3H69.9L75.3 41.4H72.9L71.4 37.3ZM66.4 35.4H70.9L68.7 28.8H68.6L66.4 35.4ZM86.9 35.9C86.9 39.3 85.1 41.5 82.4 41.5C81 41.6 79.7 40.8 79 39.6H78.9V45H76.7V30.3H78.9V32.1C79.6 30.9 80.9 30.1 82.4 30.2C85 30.2 86.9 32.4 86.9 35.9ZM84.6 35.9C84.6 33.7 83.5 32.2 81.7 32.2C80 32.2 78.9 33.7 78.9 35.9C78.9 38.1 80 39.6 81.7 39.6C83.4 39.6 84.6 38.1 84.6 35.9ZM98.8 35.9C98.8 39.3 97 41.5 94.3 41.5C92.9 41.6 91.6 40.8 90.9 39.6H90.8V45H88.6V30.3H90.8V32.1C91.5 30.9 92.8 30.1 94.3 30.2C97 30.2 98.8 32.4 98.8 35.9ZM96.5 35.9C96.5 33.7 95.4 32.2 93.6 32.2C91.9 32.2 90.8 33.7 90.8 35.9C90.8 38.1 91.9 39.6 93.6 39.6C95.4 39.6 96.5 38.1 96.5 35.9ZM106.7 37.1C106.9 38.6 108.3 39.6 110.3 39.6C112.2 39.6 113.5 38.6 113.5 37.3C113.5 36.1 112.7 35.4 110.8 34.9L108.9 34.4C106.2 33.7 104.9 32.4 104.9 30.3C104.9 27.7 107.1 25.9 110.3 25.9C113.4 25.9 115.6 27.7 115.7 30.3H113.5C113.4 28.8 112.1 27.9 110.3 27.9C108.5 27.9 107.3 28.8 107.3 30.2C107.3 31.3 108.1 31.9 110 32.4L111.6 32.8C114.7 33.5 115.9 34.8 115.9 37C115.9 39.8 113.7 41.6 110.2 41.6C106.9 41.6 104.7 39.9 104.5 37.1H106.7ZM120.7 27.7V30.3H122.8V32.1H120.7V38.2C120.7 39.1 121.1 39.6 122 39.6C122.2 39.6 122.5 39.6 122.7 39.5V41.3C122.3 41.4 121.9 41.4 121.5 41.4C119.3 41.4 118.4 40.6 118.4 38.4V32.1H116.8V30.3H118.4V27.7H120.7ZM123.9 35.9C123.9 32.4 125.9 30.3 129 30.3C132.1 30.3 134.1 32.5 134.1 35.9C134.1 39.4 132.1 41.5 129 41.5C125.9 41.5 123.9 39.3 123.9 35.9ZM131.9 35.9C131.9 33.5 130.8 32.1 129 32.1C127.2 32.1 126.1 33.5 126.1 35.9C126.1 38.3 127.2 39.7 129 39.7C130.9 39.6 131.9 38.2 131.9 35.9ZM136.1 30.3H138.2V32.2H138.3C138.6 31 139.7 30.2 140.9 30.2C141.2 30.2 141.4 30.2 141.7 30.3V32.4C141.4 32.3 141 32.3 140.7 32.3C140 32.3 139.4 32.5 139 33C138.6 33.5 138.3 34.1 138.4 34.8V41.3H136.2L136.1 30.3ZM151.9 38.1C151.6 40.1 149.7 41.5 147.2 41.5C144 41.5 142.1 39.4 142.1 35.9C142.1 32.4 144.1 30.2 147.1 30.2C150.1 30.2 152 32.3 152 35.6V36.4H144.3V36.5C144.2 37.3 144.5 38.1 145.1 38.7C145.7 39.3 146.4 39.6 147.3 39.6C148.4 39.7 149.4 39.1 149.8 38.1H151.9ZM144.3 34.8H149.7C149.7 34.1 149.5 33.3 149 32.8C148.5 32.3 147.8 32 147.1 32C146.4 32 145.7 32.3 145.1 32.8C144.6 33.4 144.3 34.1 144.3 34.8ZM65.6 16.4C66.6 16.3 67.5 16.7 68.1 17.4C68.8 18.1 69.1 19.1 68.9 20.1C68.9 22.5 67.7 23.9 65.5 23.9H63V16.4H65.6ZM64.1 22.8H65.4C66.1 22.8 66.7 22.6 67.2 22C67.7 21.5 67.9 20.8 67.8 20.1C67.9 19.4 67.7 18.7 67.2 18.2C66.8 17.7 66.1 17.4 65.4 17.4H64.1V22.8ZM70.2 21C70.1 20 70.6 19 71.4 18.5C72.2 18 73.3 18 74.1 18.5C74.9 19 75.4 20 75.3 21C75.4 22 74.9 23 74.1 23.5C73.3 24 72.2 24 71.4 23.5C70.6 23 70.1 22.1 70.2 21ZM74.2 21C74.2 19.8 73.7 19.1 72.8 19.1C71.9 19.1 71.4 19.8 71.4 21C71.4 22.2 71.9 23 72.8 23C73.7 23 74.2 22.3 74.2 21ZM82.1 23.9H81L79.9 19.7H79.8L78.7 23.9H77.6L76.1 18.2H77.2L78.2 22.5H78.3L79.4 18.2H80.4L81.5 22.5H81.6L82.6 18.2H83.7C83.6 18.2 82.1 23.9 82.1 23.9ZM84.8 18.2H85.8V19.1H85.9C86.2 18.4 86.8 18 87.5 18.1C88 18.1 88.6 18.3 88.9 18.7C89.3 19.1 89.4 19.7 89.4 20.2V23.9H88.3V20.5C88.3 19.6 87.9 19.1 87.1 19.1C86.7 19.1 86.4 19.2 86.1 19.5C85.8 19.8 85.7 20.2 85.8 20.5V23.8H84.7C84.8 23.9 84.8 18.2 84.8 18.2ZM91.1 16H92.2V23.9H91.1V16ZM93.7 21C93.6 20 94.1 19 94.9 18.5C95.7 18 96.8 18 97.6 18.5C98.4 19 98.9 20 98.8 21C98.9 22 98.4 23 97.6 23.5C96.8 24 95.7 24 94.9 23.5C94 23 93.6 22.1 93.7 21ZM97.7 21C97.7 19.8 97.2 19.1 96.3 19.1C95.4 19.1 94.9 19.8 94.9 21C94.9 22.2 95.4 23 96.3 23C97.1 23 97.7 22.3 97.7 21ZM99.9 22.3C99.9 21.3 100.6 20.7 101.9 20.6L103.4 20.5V20C103.4 19.4 103 19.1 102.3 19.1C101.7 19.1 101.3 19.3 101.2 19.7H100.2C100.3 18.7 101.2 18.1 102.4 18.1C103.8 18.1 104.5 18.8 104.5 20V23.9H103.5V23.1H103.4C103.1 23.7 102.4 24 101.8 24C101.3 24 100.9 23.9 100.5 23.6C100.1 23.2 99.9 22.8 99.9 22.3ZM103.4 21.8V21.3L102.1 21.4C101.4 21.5 101 21.7 101 22.2C101 22.7 101.4 23 102 23C102.3 23 102.7 22.9 102.9 22.7C103.2 22.5 103.3 22.2 103.4 21.8ZM105.8 21C105.8 19.2 106.7 18.1 108 18.1C108.7 18.1 109.3 18.5 109.7 19.1H109.8V16H110.9V23.9H109.9V23H109.8C109.5 23.6 108.8 24 108.1 24C106.7 24 105.8 22.8 105.8 21ZM106.9 21C106.9 22.2 107.4 22.9 108.3 22.9C109.2 22.9 109.8 22.2 109.8 21C109.8 19.8 109.2 19.1 108.3 19.1C107.5 19.1 106.9 19.8 106.9 21ZM115.3 21C115.2 20 115.7 19 116.5 18.5C117.3 18 118.4 18 119.2 18.5C120 19 120.5 20 120.4 21C120.5 22 120 23 119.2 23.5C118.4 24 117.3 24 116.5 23.5C115.7 23 115.2 22.1 115.3 21ZM119.3 21C119.3 19.8 118.8 19.1 117.9 19.1C117 19.1 116.5 19.8 116.5 21C116.5 22.2 117 23 117.9 23C118.8 23 119.3 22.3 119.3 21ZM121.8 18.2H122.8V19.1H122.9C123.2 18.4 123.8 18 124.5 18.1C125 18.1 125.6 18.3 125.9 18.7C126.3 19.1 126.4 19.7 126.4 20.2V23.9H125.3V20.5C125.3 19.6 124.9 19.1 124.1 19.1C123.7 19.1 123.4 19.2 123.1 19.5C122.9 19.8 122.7 20.2 122.8 20.5V23.8H121.7L121.8 18.2ZM132.4 16.8V18.2H133.6V19.1H132.4V22C132.4 22.6 132.6 22.9 133.2 22.9C133.3 22.9 133.5 22.9 133.6 22.9V23.8C133.4 23.8 133.2 23.9 133 23.9C131.8 23.9 131.3 23.5 131.3 22.4V19.2H130.4V18.3H131.3V16.9L132.4 16.8ZM135.1 16H136.2V19.1H136.3C136.6 18.4 137.2 18 137.9 18.1C138.4 18.1 139 18.3 139.3 18.7C139.7 19.1 139.8 19.7 139.8 20.2V23.9H138.7V20.5C138.7 19.6 138.3 19.1 137.5 19.1C137.1 19.1 136.8 19.2 136.5 19.5C136.2 19.8 136.1 20.2 136.1 20.5V23.8H135V16H135.1ZM145.9 22.3C145.6 23.4 144.6 24.1 143.6 23.9C142.9 23.9 142.2 23.6 141.7 23C141.2 22.4 141 21.7 141.1 20.9C141 20.2 141.2 19.4 141.7 18.8C142.2 18.2 142.9 17.9 143.6 17.9C145.1 17.9 146 19 146 20.8V21.2H142.2V21.3C142.2 21.7 142.3 22.1 142.6 22.4C142.9 22.7 143.3 22.9 143.7 22.9C144.2 23 144.7 22.7 145 22.2C144.9 22.3 145.9 22.3 145.9 22.3ZM142.2 20.5H144.9C144.9 20.1 144.8 19.7 144.5 19.5C144.3 19.2 143.9 19.1 143.5 19.1C143.1 19.1 142.8 19.3 142.5 19.5C142.3 19.8 142.2 20.1 142.2 20.5ZM50.5 29.8C50.5 27.8 51.6 25.9 53.3 24.8C52.2 23.2 50.5 22.3 48.6 22.2C46.6 22 44.7 23.4 43.7 23.4C42.7 23.4 41.1 22.2 39.4 22.3C37.2 22.4 35.2 23.6 34.1 25.6C31.8 29.6 33.5 35.5 35.7 38.7C36.8 40.3 38.1 42 39.8 42C41.4 41.9 42.1 40.9 44 40.9C46 40.9 46.5 42 48.3 41.9C50.1 41.9 51.2 40.3 52.2 38.7C53 37.6 53.6 36.3 54 35C51.9 34.2 50.5 32.1 50.5 29.8ZM47.3 20.2C48.3 19 48.7 17.5 48.6 16C47.1 16.2 45.8 16.9 44.8 18C43.8 19.1 43.3 20.5 43.4 22C45 22 46.4 21.3 47.3 20.2Z" fill="white"/>
</svg>
